<svg xmlns="http://www.w3.org/2000/svg" width="622.447" height="537.613" viewBox="0 0 622.447 537.613">
  <g id="Group_11" data-name="Group 11" transform="translate(-74 -70)">
    <g id="Tyre" transform="translate(533.783 472.191)">
      <g id="Group_1" data-name="Group 1">
        <circle id="Ellipse_1" data-name="Ellipse 1" cx="67.044" cy="67.044" r="67.044" fill="#524542"/>
        <circle id="Ellipse_2" data-name="Ellipse 2" cx="55.551" cy="55.551" r="55.551" transform="translate(11.493 11.493)" fill="#5b5658"/>
        <circle id="Ellipse_3" data-name="Ellipse 3" cx="45.152" cy="45.152" r="45.152" transform="translate(21.892 21.892)" fill="#99cabc"/>
        <circle id="Ellipse_4" data-name="Ellipse 4" cx="11.141" cy="11.141" r="11.141" transform="translate(55.903 55.903)" fill="#f86d70"/>
        <circle id="Ellipse_5" data-name="Ellipse 5" cx="6.059" cy="6.059" r="6.059" transform="translate(60.985 60.985)" fill="#524542"/>
        <line id="Line_2" data-name="Line 2" y1="18.03" x2="12.67" transform="translate(40.003 89.902)" fill="#fff" stroke="#5b5658" stroke-linecap="round" stroke-miterlimit="10" stroke-width="9"/>
      </g>
    </g>
    <g id="Tyre_front" data-name="Tyre front" transform="translate(96.345 473.525)">
      <circle id="Ellipse_6" data-name="Ellipse 6" cx="67.044" cy="67.044" r="67.044" fill="#524542"/>
      <circle id="Ellipse_7" data-name="Ellipse 7" cx="55.551" cy="55.551" r="55.551" transform="translate(11.493 11.493)" fill="#5b5658"/>
      <circle id="Ellipse_8" data-name="Ellipse 8" cx="45.152" cy="45.152" r="45.152" transform="translate(21.892 21.892)" fill="#99cabc"/>
      <line id="Line_3" data-name="Line 3" y1="18.03" x2="12.67" transform="translate(37.336 89.902)" fill="#fff" stroke="#5b5658" stroke-linecap="round" stroke-miterlimit="10" stroke-width="9"/>
    </g>
    <g id="axle_thing" data-name="axle thing" transform="translate(152.248 498.568)">
      <circle id="Ellipse_9" data-name="Ellipse 9" cx="11.141" cy="11.141" r="11.141" transform="translate(0 30.859)" fill="#f86d70"/>
      <circle id="Ellipse_10" data-name="Ellipse 10" cx="6.059" cy="6.059" r="6.059" transform="translate(5.082 35.941)" fill="#524542"/>
      <rect id="Rectangle_4" data-name="Rectangle 4" width="15.637" height="6.219" transform="matrix(0.826, 0.564, -0.564, 0.826, 12.325, 26.466)" fill="#f86d70"/>
      <rect id="Rectangle_5" data-name="Rectangle 5" width="14.394" height="31.851" transform="translate(33.018 0) rotate(36.413)" fill="#524542"/>
      <rect id="Rectangle_6" data-name="Rectangle 6" width="29.088" height="3.127" rx="1.564" transform="translate(9.445 18.627) rotate(36.413)" fill="#f86d70"/>
      <rect id="Rectangle_7" data-name="Rectangle 7" width="29.088" height="3.127" rx="1.564" transform="translate(7.881 20.973) rotate(36.413)" fill="#524542"/>
    </g>
    <g id="Layer_5" data-name="Layer 5" transform="translate(75 70)">
      <path id="Path_1" data-name="Path 1" d="M785.793,525.506c-8,0-10-10-10-10v-15H681.9c-.956,14.99-2.046,32.508,7.7,32.508,12.5,0,11.169,11.169,11.169,11.169V609.86c0,23.005-18.338,18.338-18.338,18.338l35.342,20.672s116.695,32.675,116.695-40.01S793.795,525.506,785.793,525.506Z" transform="translate(-277.004 -213.431)" fill="#6e86a0"/>
      <rect id="Rectangle_8" data-name="Rectangle 8" width="34" height="61" transform="translate(160 141.693)" fill="#524542"/>
      <path id="Path_2" data-name="Path 2" d="M274.216,402.215s-24.3,61.956-54.666,89.9-19.437,78.963-19.437,78.963h74.1Z" transform="translate(-116.046 -180.685)" fill="#6e86a0"/>
      <path id="Path_3" data-name="Path 3" d="M202.716,545.178s-1.161-11.611,12.772-11.611h45.283s0-12.772,13.933-12.772V371.012h20.9V526.6s1.161,69.667,54.572,69.667,214.141,1.094,214.141,1.094v33.672l-300.644-1.095Z" transform="translate(-117.544 -170.289)" fill="#65798e"/>
      <g id="Group_2" data-name="Group 2" transform="translate(11.573 375.695)">
        <path id="Path_4" data-name="Path 4" d="M183.3,637.747s39.727,2.6,69.617,65.715c-3.927-27.748-25.479-55.875-51.376-64.957-43.085-15.109-83.959,4.97-101.478,39.033C100.079,677.523,137.709,627.673,183.3,637.747Z" transform="translate(-94.924 -633.407)" fill="#6e86a0"/>
        <path id="Path_5" data-name="Path 5" d="M180.735,639.244C135.14,629.171,97.51,679.021,97.5,679.036a80.793,80.793,0,0,0-5.143,12.438h70.428c4.83,0,9.656-.137,14.483-.3,10.769-.371,31.178,4.2,31.178,33.182,0,35.2,41.71,25.84,42.55,25.626V713.835a63.325,63.325,0,0,0-.642-8.875C220.462,641.849,180.735,639.244,180.735,639.244Z" transform="translate(-92.355 -634.904)" fill="#576980"/>
      </g>
      <rect id="Rectangle_9" data-name="Rectangle 9" width="104.99" height="3.182" rx="1.591" transform="translate(0 406.933)" fill="#d53e38"/>
      <path id="Path_6" data-name="Path 6" d="M346.259,371.052V529s4.435,66.653,52.106,67.214l201.782,1.419" transform="translate(-165.376 -170.302)" fill="none" stroke="#576980" stroke-miterlimit="10" stroke-width="13"/>
      <path id="Path_7" data-name="Path 7" d="M356.108,370.642V524.22s4.285,64.808,50.347,65.353l178.5,1.192,18.474.168" transform="translate(-168.658 -170.166)" fill="none" stroke="#778faa" stroke-miterlimit="10" stroke-width="18"/>
      <path id="Rectangle_10" data-name="Rectangle 10" d="M19.976,0H74.433a0,0,0,0,1,0,0V39.953a0,0,0,0,1,0,0H19.976A19.976,19.976,0,0,1,0,19.976v0A19.976,19.976,0,0,1,19.976,0Z" transform="translate(367.082 437.495)" fill="#576980"/>
      <rect id="Rectangle_11" data-name="Rectangle 11" width="65" height="20" rx="10" transform="translate(143 187.693)" fill="#99cabc"/>
      <rect id="Rectangle_12" data-name="Rectangle 12" width="8" height="29" rx="4" transform="translate(143 183.693)" fill="#524542"/>
      <path id="Path_8" data-name="Path 8" d="M284.669,372.338a10.669,10.669,0,0,1,0-21.338" transform="translate(-141.301 -163.622)" fill="#d53e38"/>
      <g id="Group_3" data-name="Group 3" transform="translate(171.137 128.971)">
        <ellipse id="Ellipse_11" data-name="Ellipse 11" cx="17.5" cy="18" rx="17.5" ry="18" transform="translate(-0.137 -0.278)" fill="#524542"/>
        <circle id="Ellipse_12" data-name="Ellipse 12" cx="14.563" cy="14.563" r="14.563" transform="translate(3.011 3.167)" fill="#f86d70"/>
        <circle id="Ellipse_13" data-name="Ellipse 13" cx="11.327" cy="11.327" r="11.327" transform="translate(6.248 6.403)" fill="#d53e38"/>
      </g>
      <path id="Path_9" data-name="Path 9" d="M223.331,295.261c-10.82,3.006-22.15-3.767-25.307-15.128s3.055-23.009,13.875-26.015" transform="translate(-115.714 -131.343)" fill="#d53e38"/>
      <path id="Path_10" data-name="Path 10" d="M220.251,248.219s-11.093-.778-13.039,0,13.039,50.927,13.039,50.927" transform="translate(-118.991 -129.263)" fill="#99cabc"/>
      <g id="Group_4" data-name="Group 4" transform="translate(105.735 118.567)">
        <path id="Path_11" data-name="Path 11" d="M233.565,267.156v39.255s18.492-.669,35.541-4.923C261.594,285.07,243.925,273.072,233.565,267.156Z" transform="translate(-233.565 -254.254)" fill="#65798e"/>
        <path id="Path_12" data-name="Path 12" d="M297.192,273.886c-1.015-23.742-63.627-26.078-63.627-26.078v12.9c10.36,5.916,28.029,17.914,35.541,34.332C283.931,291.342,297.664,284.93,297.192,273.886Z" transform="translate(-233.565 -247.808)" fill="#6e86a0"/>
      </g>
      <rect id="Rectangle_13" data-name="Rectangle 13" width="5.06" height="68.893" rx="2.53" transform="translate(100.87 110.588)" fill="#524542"/>
      <rect id="Rectangle_14" data-name="Rectangle 14" width="5.06" height="59.453" rx="2.53" transform="translate(116.874)" fill="#524542"/>
      <path id="Path_13" data-name="Path 13" d="M259.8,128.059a2.383,2.383,0,0,1-2.53-2.184V74.908a2.557,2.557,0,0,1,5.06,0,118.846,118.846,0,0,1,0,50.967A2.721,2.721,0,0,1,259.8,128.059Z" transform="translate(-135.727 -70.908)" fill="#99cabc"/>
      <path id="Rectangle_15" data-name="Rectangle 15" d="M4.223,0H14a0,0,0,0,1,0,0V11a0,0,0,0,1,0,0H4.223A4.223,4.223,0,0,1,0,6.777V4.223A4.223,4.223,0,0,1,4.223,0Z" transform="translate(103 37.693)" fill="#524542"/>
      <path id="Path_14" data-name="Path 14" d="M297.857,235.877,277.908,210.51l-10.651-2.761L223.81,156.1s-6-10.979,4.578-17.664" transform="translate(-124.015 -92.799)" fill="none" stroke="#524542" stroke-miterlimit="10" stroke-width="4"/>
      <path id="Path_15" data-name="Path 15" d="M734,605.678V557h54.378A46.645,46.645,0,0,1,826.7,576.618a44.676,44.676,0,0,1,7.986,27.06C834.024,639.02,734,605.678,734,605.678Z" transform="translate(-294.561 -232.255)" fill="#65798e"/>
      <rect id="Rectangle_16" data-name="Rectangle 16" width="77.352" height="26.776" rx="13.388" transform="translate(375.423 444.722)" fill="#d53e38"/>
      <ellipse id="Ellipse_14" data-name="Ellipse 14" cx="13" cy="13.5" rx="13" ry="13.5" transform="translate(376 444.693)" fill="#f86d70"/>
      <g id="Group_5" data-name="Group 5" transform="translate(436.722 366.088)">
        <path id="Path_16" data-name="Path 16" d="M876.228,647.724a114.44,114.44,0,0,0-34.251-22.755,74.515,74.515,0,0,0-29.3-5.968H743.029a15.7,15.7,0,0,0-12.977,6.813c-.042.061-.083.126-.125.189H808.9c21.5,0,42.427,10.293,58.468,24.613,9.7,8.659,21.277,20.544,26.31,36.735.395,1.27.776,2.5,1.15,3.714C893.641,677.253,889.224,660.219,876.228,647.724Z" transform="translate(-729.926 -619)" fill="#6e86a0"/>
      </g>
      <g id="Group_6" data-name="Group 6" transform="translate(430.321 372.423)">
        <path id="Path_17" data-name="Path 17" d="M892.289,693.562c-.373-1.212-.755-2.445-1.15-3.714-5.033-16.191-16.609-28.075-26.31-36.735-16.041-14.32-36.965-24.613-58.468-24.613H727.384a36.133,36.133,0,0,0-5.087,12.646c4.032,4.635,12.22,35.638,12.464,102.639h12.146V730.91H891.514S893.457,707.12,892.289,693.562ZM767.11,692.515,756.44,663.842h84.02l12.67,28.674Z" transform="translate(-720.983 -628.5)" fill="#65798e"/>
        <path id="Path_18" data-name="Path 18" d="M720.5,666.445c1.981,32.685,0,83.659,0,83.659H734.1c-.244-67-8.432-98-12.464-102.639A70.042,70.042,0,0,0,720.5,666.445Z" transform="translate(-720.327 -634.819)" fill="#576980"/>
      </g>
      <path id="Path_19" data-name="Path 19" d="M743,672.752l15.01,40.341H879.033l-17.825-40.341Z" transform="translate(-297.56 -270.821)" fill="#65798e"/>
      <rect id="Rectangle_17" data-name="Rectangle 17" width="8" height="11" rx="4" transform="translate(533 202.693)" fill="#f05957"/>
      <g id="Group_7" data-name="Group 7" transform="translate(458.443 408.181)">
        <path id="Path_20" data-name="Path 20" d="M762.5,682.124l12.251,32.925h98.775l-14.548-32.925Z" transform="translate(-762.5 -682.124)" fill="#65798e"/>
        <line id="Line_4" data-name="Line 4" x2="13.783" y2="30.628" transform="translate(14.165 1.149)" fill="none" stroke="#524542" stroke-linecap="round" stroke-miterlimit="10" stroke-width="3"/>
        <line id="Line_5" data-name="Line 5" x2="13.783" y2="30.628" transform="translate(21.057 1.149)" fill="none" stroke="#524542" stroke-linecap="round" stroke-miterlimit="10" stroke-width="3"/>
        <line id="Line_6" data-name="Line 6" x2="13.783" y2="30.628" transform="translate(27.948 1.149)" fill="none" stroke="#524542" stroke-linecap="round" stroke-miterlimit="10" stroke-width="3"/>
        <line id="Line_7" data-name="Line 7" x2="13.783" y2="30.628" transform="translate(34.839 1.149)" fill="none" stroke="#524542" stroke-linecap="round" stroke-miterlimit="10" stroke-width="3"/>
        <line id="Line_8" data-name="Line 8" x2="13.783" y2="30.628" transform="translate(41.731 1.149)" fill="none" stroke="#524542" stroke-linecap="round" stroke-miterlimit="10" stroke-width="3"/>
        <line id="Line_9" data-name="Line 9" x2="13.783" y2="30.628" transform="translate(48.622 1.149)" fill="none" stroke="#524542" stroke-linecap="round" stroke-miterlimit="10" stroke-width="3"/>
        <line id="Line_10" data-name="Line 10" x2="13.783" y2="30.628" transform="translate(55.513 1.149)" fill="none" stroke="#524542" stroke-linecap="round" stroke-miterlimit="10" stroke-width="3"/>
        <line id="Line_11" data-name="Line 11" x2="13.783" y2="30.628" transform="translate(55.513 1.149)" fill="none" stroke="#524542" stroke-linecap="round" stroke-miterlimit="10" stroke-width="3"/>
        <line id="Line_12" data-name="Line 12" x2="13.783" y2="30.628" transform="translate(62.405 1.149)" fill="none" stroke="#524542" stroke-linecap="round" stroke-miterlimit="10" stroke-width="3"/>
        <line id="Line_13" data-name="Line 13" x2="13.783" y2="30.628" transform="translate(69.296 1.149)" fill="none" stroke="#524542" stroke-linecap="round" stroke-miterlimit="10" stroke-width="3"/>
        <line id="Line_14" data-name="Line 14" x2="13.783" y2="30.628" transform="translate(76.187 1.149)" fill="none" stroke="#524542" stroke-linecap="round" stroke-miterlimit="10" stroke-width="3"/>
        <line id="Line_15" data-name="Line 15" x2="13.783" y2="30.628" transform="translate(83.079 1.149)" fill="none" stroke="#524542" stroke-linecap="round" stroke-miterlimit="10" stroke-width="3"/>
        <line id="Line_16" data-name="Line 16" x2="13.783" y2="30.628" transform="translate(89.97 1.149)" fill="none" stroke="#524542" stroke-linecap="round" stroke-miterlimit="10" stroke-width="3"/>
        <line id="Line_17" data-name="Line 17" x2="13.783" y2="30.628" transform="translate(96.861 1.149)" fill="none" stroke="#524542" stroke-linecap="round" stroke-miterlimit="10" stroke-width="3"/>
        <line id="Line_18" data-name="Line 18" x2="13.783" y2="30.628" transform="translate(7.274 1.149)" fill="none" stroke="#524542" stroke-linecap="round" stroke-miterlimit="10" stroke-width="3"/>
        <line id="Line_19" data-name="Line 19" x2="13.783" y2="30.628" transform="translate(0.383 1.149)" fill="none" stroke="#524542" stroke-linecap="round" stroke-miterlimit="10" stroke-width="3"/>
      </g>
      <g id="Group_9" data-name="Group 9" transform="translate(404.901 275.399)">
        <g id="Group_8" data-name="Group 8">
          <path id="Path_21" data-name="Path 21" d="M776.091,483H682.735c0,3.384-.259,7.426-.53,11.669h93.886Z" transform="translate(-682.205 -483)" fill="#576980"/>
        </g>
      </g>
      <rect id="Rectangle_18" data-name="Rectangle 18" width="115" height="27" rx="10.809" transform="translate(395 249.693)" fill="#524542"/>
      <path id="Path_22" data-name="Path 22" d="M765.5,462.685h52.736a11.279,11.279,0,0,0,11.279-11.279V387" transform="translate(-305.056 -175.616)" fill="none" stroke="#524542" stroke-miterlimit="10" stroke-width="3"/>
      <g id="Group_10" data-name="Group 10" transform="translate(446.408 279.655)">
        <ellipse id="Ellipse_15" data-name="Ellipse 15" cx="8" cy="7.5" rx="8" ry="7.5" transform="translate(-0.408 0.039)" fill="#524542"/>
        <ellipse id="Ellipse_16" data-name="Ellipse 16" cx="4.5" cy="5.5" rx="4.5" ry="5.5" transform="translate(3.592 2.039)" fill="#99cabc"/>
      </g>
      <rect id="Rectangle_19" data-name="Rectangle 19" width="8" height="10" rx="4" transform="translate(533 183.693)" fill="#f1b14b"/>
      <rect id="Rectangle_20" data-name="Rectangle 20" width="24" height="5" transform="translate(509 207.693)" fill="#5b5658"/>
      <rect id="Rectangle_21" data-name="Rectangle 21" width="16.358" height="52.346" rx="7.861" transform="translate(504.934 177.043)" fill="#524542"/>
      <rect id="Rectangle_22" data-name="Rectangle 22" width="9" height="43" rx="3.936" transform="translate(527 177.693)" fill="#99cabc"/>
      <rect id="Rectangle_23" data-name="Rectangle 23" width="104.99" height="3.182" rx="1.591" transform="translate(0 411.601)" fill="#524542" stroke="#524542" stroke-miterlimit="10" stroke-width="2"/>
      <rect id="Rectangle_24" data-name="Rectangle 24" width="111.658" height="3.182" rx="1.591" transform="translate(508.789 458.279)" fill="#d53e38"/>
      <rect id="Rectangle_25" data-name="Rectangle 25" width="111.658" height="3.182" rx="1.591" transform="translate(508.789 462.947)" fill="#524542" stroke="#524542" stroke-miterlimit="10" stroke-width="2"/>
    </g>
  </g>
</svg>
